<svg xmlns="http://www.w3.org/2000/svg" xmlns:xlink="http://www.w3.org/1999/xlink" preserveAspectRatio="xMidYMid meet" version="1.0" viewBox="1.0 8.0 62.0 55.0" zoomAndPan="magnify" style="fill: rgb(237, 221, 188);" original_string_length="1593"><g><g id="__id153_stvu6rhfk"><path d="M62,37h-5H47H6V14.674C6,12.097,7.57,10,9.5,10s3.5,2.097,3.5,4.674v3.412h-0.571C9.986,18.086,8,19.919,8,22.172V25 c0,0.552,0.447,1,1,1h10c0.553,0,1-0.448,1-1v-2.828c0-2.253-1.986-4.086-4.429-4.086H15v-3.412C15,10.994,12.532,8,9.5,8 S4,10.994,4,14.674V37H2c-0.553,0-1,0.448-1,1v7.07c0,7.367,5.753,13.401,13,13.883v1.926C14,62.048,14.951,63,16.121,63h1.758 C19.049,63,20,62.048,20,60.879V59h24v1.879C44,62.048,44.951,63,46.121,63h1.758C49.049,63,50,62.048,50,60.879v-1.926 c7.247-0.482,13-6.516,13-13.883V38C63,37.448,62.553,37,62,37z M18,22.172V24h-8v-1.828c0-1.15,1.09-2.086,2.429-2.086h1.566 c0.002,0,0.003,0.001,0.005,0.001s0.003-0.001,0.005-0.001h1.566C16.91,20.086,18,21.021,18,22.172z M56,39v10h-8V39H56z M18,60.879C18,60.946,17.945,61,17.879,61h-1.758C16.055,61,16,60.946,16,60.879V59h2V60.879z M47.879,61h-1.758 C46.055,61,46,60.946,46,60.879V59h2v1.879C48,60.946,47.945,61,47.879,61z M61,45.07C61,51.648,55.648,57,49.07,57H14.93 C8.352,57,3,51.648,3,45.07V39h43v11c0,0.552,0.447,1,1,1h10c0.553,0,1-0.448,1-1V39h3V45.07z" style="fill: inherit;"/><path d="M9,28v3c0,0.552,0.447,1,1,1s1-0.448,1-1v-3c0-0.552-0.447-1-1-1S9,27.448,9,28z" style="fill: inherit;"/><path d="M13,28v3c0,0.552,0.447,1,1,1s1-0.448,1-1v-3c0-0.552-0.447-1-1-1S13,27.448,13,28z" style="fill: inherit;"/><path d="M17,28v3c0,0.552,0.447,1,1,1s1-0.448,1-1v-3c0-0.552-0.447-1-1-1S17,27.448,17,28z" style="fill: inherit;"/></g></g></svg>