<svg width="52" height="52" viewBox="0 0 52 52" fill="none" xmlns="http://www.w3.org/2000/svg">
<g clip-path="url(#clip0_2_1051)">
<g clip-path="url(#clip1_2_1051)">
<g clip-path="url(#clip2_2_1051)">
<g clip-path="url(#clip3_2_1051)">
<path d="M32.2759 11.1812H18.9755C14.5707 11.1812 10.9824 14.7695 10.9824 19.1743V32.4747C10.9824 36.8795 14.5707 40.4679 18.9755 40.4679H32.2759C36.6807 40.4679 40.2691 36.8795 40.2691 32.4747V19.1958C40.2691 14.7695 36.6807 11.1812 32.2759 11.1812ZM37.7551 32.4962C37.7551 35.5259 35.3056 37.9754 32.2759 37.9754H18.9755C15.9458 37.9754 13.4748 35.5259 13.4748 32.4962V19.1958C13.4748 16.1661 15.9458 13.6951 18.9755 13.6951H32.2759C35.3056 13.6951 37.7551 16.1446 37.7551 19.1958V32.4962Z" fill="#EDDDBC"/>
<path d="M35.413 17.8205C35.413 18.8089 34.618 19.6254 33.6081 19.6254C32.6197 19.6254 31.8032 18.8304 31.8032 17.8205C31.8032 16.8321 32.5982 16.0156 33.6081 16.0156C34.618 16.0371 35.413 16.8321 35.413 17.8205Z" fill="#EDDDBC"/>
<path d="M25.615 18.3794C21.511 18.3794 18.159 21.7314 18.159 25.8354C18.159 29.9394 21.511 33.2913 25.615 33.2913C29.719 33.2913 33.0709 29.9394 33.0709 25.8354C33.0709 21.7314 29.7405 18.3794 25.615 18.3794ZM25.615 30.7774C22.8861 30.7774 20.673 28.5642 20.673 25.8354C20.673 23.1065 22.8861 20.8934 25.615 20.8934C28.3438 20.8934 30.557 23.1065 30.557 25.8354C30.557 28.5642 28.3438 30.7774 25.615 30.7774Z" fill="#EDDDBC"/>
<path d="M25.615 51.3401C11.5625 51.3401 0.109985 39.909 0.109985 25.8351C0.109985 11.7826 11.5625 0.330078 25.615 0.330078C39.6889 0.330078 51.12 11.7826 51.12 25.8351C51.12 39.909 39.6889 51.3401 25.615 51.3401ZM25.615 1.72673C12.3146 1.72673 1.50664 12.5347 1.50664 25.8351C1.50664 39.1355 12.3146 49.9434 25.615 49.9434C38.9154 49.9434 49.7233 39.1355 49.7233 25.8351C49.7233 12.5347 38.9154 1.72673 25.615 1.72673Z" fill="#EDDDBC"/>
</g>
</g>
</g>
</g>
<defs>
<clipPath id="clip0_2_1051">
<rect width="51.01" height="51.01" fill="white" transform="translate(0.109985 0.330078)"/>
</clipPath>
<clipPath id="clip1_2_1051">
<rect width="51.01" height="51.01" fill="white" transform="translate(0.109985 0.330078)"/>
</clipPath>
<clipPath id="clip2_2_1051">
<rect width="51.01" height="51.01" fill="white" transform="translate(0.109985 0.330078)"/>
</clipPath>
<clipPath id="clip3_2_1051">
<rect width="51.01" height="51.01" fill="white" transform="translate(0.109985 0.330078)"/>
</clipPath>
</defs>
</svg>
